<svg width="24" height="24" viewBox="0 0 24 24" fill="none" xmlns="http://www.w3.org/2000/svg">
<g clip-path="url(#clip0)">
<path d="M12 11.5C13.1867 11.5 14.3467 11.1628 15.3334 10.531C16.3201 9.89913 17.0892 9.00111 17.5433 7.95043C17.9974 6.89976 18.1162 5.74362 17.8847 4.62823C17.6532 3.51284 17.0818 2.48829 16.2426 1.68414C15.4035 0.879987 14.3344 0.332352 13.1705 0.110487C12.0067 -0.111378 10.8003 0.00249139 9.7039 0.437695C8.60754 0.872899 7.67047 1.60989 7.01118 2.55547C6.35189 3.50106 6 4.61276 6 5.75C6.00159 7.27453 6.63424 8.73618 7.75911 9.81419C8.88399 10.8922 10.4092 11.4985 12 11.5ZM12 1.91667C12.7911 1.91667 13.5645 2.14149 14.2223 2.5627C14.8801 2.98391 15.3928 3.5826 15.6955 4.28305C15.9983 4.9835 16.0775 5.75425 15.9231 6.49785C15.7688 7.24144 15.3878 7.92448 14.8284 8.46058C14.269 8.99668 13.5563 9.36177 12.7804 9.50968C12.0044 9.65759 11.2002 9.58168 10.4693 9.29154C9.73836 9.0014 9.11365 8.51008 8.67412 7.87969C8.2346 7.2493 8 6.50816 8 5.75C8 4.73334 8.42143 3.75832 9.17157 3.03943C9.92172 2.32054 10.9391 1.91667 12 1.91667Z" fill="white"/>
<path d="M12 13.4166C9.61386 13.4192 7.32622 14.3287 5.63896 15.9456C3.95171 17.5626 3.00265 19.7549 3 22.0416C3 22.2958 3.10536 22.5395 3.29289 22.7193C3.48043 22.899 3.73478 23 4 23C4.26522 23 4.51957 22.899 4.70711 22.7193C4.89464 22.5395 5 22.2958 5 22.0416C5 20.2625 5.7375 18.5562 7.05025 17.2981C8.36301 16.0401 10.1435 15.3333 12 15.3333C13.8565 15.3333 15.637 16.0401 16.9497 17.2981C18.2625 18.5562 19 20.2625 19 22.0416C19 22.2958 19.1054 22.5395 19.2929 22.7193C19.4804 22.899 19.7348 23 20 23C20.2652 23 20.5196 22.899 20.7071 22.7193C20.8946 22.5395 21 22.2958 21 22.0416C20.9974 19.7549 20.0483 17.5626 18.361 15.9456C16.6738 14.3287 14.3861 13.4192 12 13.4166Z" fill="white"/>
</g>
<defs>
<clipPath id="clip0">
<rect width="24" height="23" fill="white"/>
</clipPath>
</defs>
</svg>
