<svg width="24" height="24" viewBox="0 0 24 24" fill="none" xmlns="http://www.w3.org/2000/svg">
<g clip-path="url(#clip0)">
<g clip-path="url(#clip1)">
<path d="M24 21V14C23.9974 11.6139 23.0483 9.32622 21.361 7.63897C19.6738 5.95171 17.3861 5.00265 15 5H10.17V3.414C10.1699 3.0185 10.0526 2.63191 9.8328 2.30309C9.61304 1.97427 9.30071 1.71799 8.93531 1.56665C8.56991 1.41531 8.16784 1.3757 7.77994 1.45284C7.39203 1.52997 7.0357 1.72038 6.756 2L0.875999 7.879C0.313587 8.44159 -0.00235939 9.20451 -0.00235939 10C-0.00235939 10.7955 0.313587 11.5584 0.875999 12.121L6.756 18C7.0357 18.2796 7.39203 18.47 7.77994 18.5472C8.16784 18.6243 8.56991 18.5847 8.93531 18.4334C9.30071 18.282 9.61304 18.0257 9.8328 17.6969C10.0526 17.3681 10.1699 16.9815 10.17 16.586V15H16C17.5908 15.0016 19.116 15.6342 20.2409 16.7591C21.3658 17.884 21.9984 19.4092 22 21C22 21.2652 22.1054 21.5196 22.2929 21.7071C22.4804 21.8946 22.7348 22 23 22C23.2652 22 23.5196 21.8946 23.7071 21.7071C23.8946 21.5196 24 21.2652 24 21ZM8.17 6C8.17 6.26522 8.27536 6.51957 8.46289 6.70711C8.65043 6.89465 8.90478 7 9.17 7H15C16.8559 7.00212 18.6351 7.7403 19.9474 9.05259C21.2597 10.3649 21.9979 12.1441 22 14V15.714C21.2504 14.8609 20.3275 14.1776 19.2928 13.7096C18.2582 13.2416 17.1356 12.9997 16 13H9.17C8.90478 13 8.65043 13.1054 8.46289 13.2929C8.27536 13.4804 8.17 13.7348 8.17 14V16.586L2.291 10.707C2.10353 10.5195 1.99821 10.2652 1.99821 10C1.99821 9.73484 2.10353 9.48053 2.291 9.293L8.17 3.414V6Z" fill="#F0F3F6"/>
</g>
</g>
<defs>
<clipPath id="clip0">
<rect width="24" height="24" fill="white"/>
</clipPath>
<clipPath id="clip1">
<rect width="24" height="24" fill="white" transform="matrix(-1 0 0 1 24 -2)"/>
</clipPath>
</defs>
</svg>
