<svg width="24" height="24" viewBox="0 0 24 24" fill="none" xmlns="http://www.w3.org/2000/svg">
<g clip-path="url(#clip0)">
<path d="M22.555 14.0929L20.655 7.54173C20.0981 5.62251 18.8877 3.93676 17.2163 2.75243C15.5449 1.56811 13.5084 0.95318 11.4304 1.00539C9.3525 1.0576 7.35239 1.77395 5.74805 3.04058C4.1437 4.30721 3.02719 6.05143 2.57598 7.99598L1.10498 14.3354C0.942497 15.0358 0.946254 15.7623 1.11597 16.4612C1.2857 17.1601 1.61705 17.8136 2.08556 18.3733C2.55408 18.9331 3.1478 19.3849 3.82289 19.6953C4.49798 20.0057 5.23721 20.1668 5.98598 20.1668H7.09998C7.3295 21.25 7.94271 22.2239 8.83572 22.9233C9.72874 23.6228 10.8466 24.005 12 24.005C13.1533 24.005 14.2712 23.6228 15.1642 22.9233C16.0573 22.2239 16.6705 21.25 16.9 20.1668H17.738C18.5088 20.1669 19.2692 19.9961 19.9597 19.6679C20.6503 19.3398 21.2523 18.863 21.7188 18.2749C22.1853 17.6869 22.5036 17.0034 22.6488 16.2779C22.794 15.5525 22.7622 14.8047 22.556 14.0929H22.555ZM12 22.0835C11.3817 22.081 10.7794 21.8956 10.2753 21.5525C9.77121 21.2094 9.39007 20.7254 9.18398 20.1668H14.816C14.6099 20.7254 14.2288 21.2094 13.7247 21.5525C13.2206 21.8956 12.6182 22.081 12 22.0835ZM20.126 17.1145C19.8473 17.4688 19.4863 17.7559 19.0716 17.953C18.6569 18.1502 18.1999 18.2519 17.737 18.2501H5.98598C5.53677 18.2501 5.0933 18.1533 4.68832 17.967C4.28334 17.7808 3.92719 17.5097 3.64614 17.1738C3.3651 16.838 3.16634 16.446 3.06454 16.0267C2.96274 15.6074 2.9605 15.1715 3.05798 14.7513L4.52798 8.41094C4.88233 6.88356 5.75929 5.51352 7.01944 4.51862C8.27959 3.52372 9.85061 2.96107 11.4828 2.92009C13.1149 2.87911 14.7145 3.36217 16.0273 4.29247C17.3401 5.22278 18.2907 6.54693 18.728 8.05444L20.628 14.6056C20.7535 15.0324 20.7735 15.4814 20.6864 15.9169C20.5992 16.3524 20.4074 16.7625 20.126 17.1145Z" fill="#F0F3F6"/>
</g>
<defs>
<clipPath id="clip0">
<rect width="24" height="23" fill="white" transform="translate(0 1)"/>
</clipPath>
</defs>
</svg>
